<svg id="Layer_1" data-name="Layer 1" xmlns="http://www.w3.org/2000/svg" viewBox="0 0 279.7 185.97"><defs><style>.cls-1{fill:#eeecda;}</style></defs><title>Asset 1</title><g id="Layer_2" data-name="Layer 2"><g id="Layer_1-2" data-name="Layer 1-2"><path class="cls-1" d="M258.9,116.42V99.66H274a4.68,4.68,0,0,1,3,.77,3,3,0,0,1,.93,2.49v3.93a3,3,0,0,1-.93,2.47,4.8,4.8,0,0,1-3,.75h-2.3l8,6.35h-5.86l-7-6.35H263v6.35m9.34-13.87H263v4.63h9.34a2.47,2.47,0,0,0,1.46-.31,1.21,1.21,0,0,0,.4-1v-2a1.21,1.21,0,0,0-.4-1,2.45,2.45,0,0,0-1.52-.35ZM234.8,116.42V99.66h18v3H238.93v3.65H247v2.89h-8.07v4.12H253v3.14Zm-26.57,0V99.66h4.13v6.77l9.78-6.77h5.92l-11.6,7.76,12.89,9h-6.46l-10.53-7.56v7.56Zm-21.87,0V99.66h4.12v13.62h13.14v3.14Zm-21.42-6.74h7.69l-3.91-7ZM157,116.42l10-16.76h3.93L181,116.42h-4.58l-2.12-3.68H163.2l-2.11,3.68Zm-25.11,0L124,96h4.92l5.18,13.72L139.57,96h3.33l5.53,13.72,5-13.72h4.26l-7.9,20.46h-3.22l-5.63-14.15-5.71,14.15Zm-17.23-13.87h-9.33V107h9.33a2.47,2.47,0,0,0,1.46-.31,1.21,1.21,0,0,0,.4-1V103.9a1.21,1.21,0,0,0-.4-1,2.47,2.47,0,0,0-1.45-.35ZM101.3,116.42V99.66h15.1a4.68,4.68,0,0,1,3,.77,3,3,0,0,1,.92,2.49v3.7a3,3,0,0,1-.93,2.49,4.68,4.68,0,0,1-3,.77h-11v6.54Zm-24.1,0V99.66h18v3H81.34v3.65h8.07v2.89H81.34v4.12H95.41v3.14Zm-24.09,0V99.66h18v3H57.24v3.65h8.07v2.89H57.24v4.12H71.31v3.14Zm-23.07,0V99.66h4.12v13.62H47.32v3.14ZM18.39,99.54H5v4.39H17.75c2,0,3.35.35,4.06,1s1.05,2,1.05,3.82v2.81q0,2.77-1.05,3.81c-.71.68-2.06,1-4.06,1H5.12c-2,0-3.36-.34-4.06-1S0,113.44,0,111.59V111l4.2-.87v2.42H18.66V107.9H5.91c-2,0-3.33-.34-4-1s-1-2-1-3.82V100.8c0-1.86.35-3.13,1-3.82s2-1,4-1H17.52c1.92,0,3.25.33,4,1a4.59,4.59,0,0,1,1.09,3.51v.43l-4.2,1Z" transform="translate(0 -0.05)"/><path class="cls-1" d="M142.51,73.25c1.73,1.93-5.32,7.21-7.49,5-1-1,2.55-5,3.16-7.17,1.18-4.19,2.56-8,6.25-10.62.09-.51-.7-2.75-1.1-2.53-7.41,4.09-.47-5.65.41-7.76a8.23,8.23,0,0,0-.77-7.75c-.45-.74-5.65,5.16-4.77,1.13.62-1.16,2-2.07,2.35-3.46-.5-.06-6.92,1.54-5.94-1.15A1.8,1.8,0,0,1,136,38c7.41-1.72,14.9-5.13,22.65-3.1,2.65-1.24,2.21-9.18,4.92-8.32,2.21.69-.07,2.3,2.38,1.11.73-.35,7.19-3.19,5.56-.19,6.41,2.55-3.64,3-5.31,3.39-5.76,1.43-2.28,7-8.88,6.56-2-.15-13.62-2.17-12.17,2.82,1.53,5.27,1.77,5.85.19,11.35-.81,2.84-.2,5,1.62,7.62,1.39,2,3.06,2.55,3.93,5.19,1.77,5.39-.73,5.18,3.89,9.18,3.12,2.7.15,3.69-2.25,1.48-4.83-4.43-2.5,4.86-.81,5.21,3.38.7,3.82-2.11,6.21-3.53,3.7-2.19-.14,3.9,2.93,2,.95-.6,4.72-5.77,4.48-2.37-.51,7-11.06,7.56-16.17,6.44-1.39-.29-1.42-7.61-3.35-5.51-.84.91-7,3.91-6.36,5a4,4,0,0,1,.23,3.7c7-1.2,30.75-.23,37.67-1.55,6.15-1.18,2.22,3.26-2.06,3.32-6.72.11-29.78,0-36.52-.23-1.45,4.88-10.59.89-13.71.68-6.09-.4-21.31.64-26.5.27-.33,0-1.27.29-.26-1.73,1.56-3.12,20,5.61,20.67-5.67.28-4.54,5.26-7.5,5-11.39a5.13,5.13,0,0,1-.66-1.9c-1.37-8.44-2-14.43,1.23-22.53,2-5.13-3.91-8.79-1.45-14,1.17-2.48-.28-2.14-1.64-3.59C116,21.87,105.46,11.8,111,3.12c1.65,0,3.8-2.92,5-3.06,4.11-.47,1.13,11-2.56,6.34,0-.61,2.37-3,2-2.89-.81.25-2.56.75-3,1.57-2.18,7.61,3.67,15.44,10.17,18.65.82.64,4.38,4.07,4.23,4.9-.76,4.29-2,5,.31,9.38,3.43,6.58-3.29,10.63-2.57,17.7.28,2.74,2.67,7,1,9.32,1,.68,5.16-.55,5,1.31-.26,2.78-4.74.31-3.9,3.18,0,4.92-9.86,14-.73,16a31.51,31.51,0,0,0,3.84-.79c-.16-1.53,4.29-4.63,5.67-5,5.1-1.34,13.86-5.77,13.36-12.13-.9,3.38-3.18,2.33-2.41-.51-.67,1.41-2.15,5.8-3.87,6.21m-5.15-51.59c-.34-.27-.69-.53-1.06-.77-.53-.52-.29-1,.16-1.46a3.41,3.41,0,0,1,2.67,1.41,18.92,18.92,0,0,1,1.45,2.3c.65.84,1.74,1.25,2.39,2.09.89,1.14-.71,1.74-1.55,2a1.38,1.38,0,0,1-.81-.65c-1.08-1.45-1.64-3.25-2.88-4.59a3.5,3.5,0,0,0-.39-.38Zm-3.53-.81a1.21,1.21,0,0,1,0-.38c.12-.45.5-.51.91-.53q.65.54,1.26,1.11a3.68,3.68,0,0,1,.94,1.17c.08,1,1,1.75,1.62,2.41a9.28,9.28,0,0,1,1,1.12c1,1.39-1,1.64-2,1.59s-2.07-.51-2.13-1.53v-.2a1.07,1.07,0,0,0,.22-1c-.26-1.31-1.28-2.31-1.79-3.52Zm1.23,3.86c.37,1.18-.26,1.93-1.41,2.17.57.2,3.44.76,2.19,1.73a2.34,2.34,0,0,1-.49.27,20.83,20.83,0,0,1-4.1-.17,4.44,4.44,0,0,0-1.81.75c-.65.38-1.28.81-1.9,1.24-1.81-.19-.34-1.78.33-2.38a8.09,8.09,0,0,1,2.42-1.62c-.6-.26-.27-1,.17-1.22a1,1,0,0,0,.65-1.26,1.11,1.11,0,0,0-.07-.16c-.24-.59-2.79-3.84-1-3.81a2.74,2.74,0,0,1,1.29.48,8.51,8.51,0,0,1,3.71,3.93ZM153.81,27h1.58l.06.06.05.06.05.07v.57l-.06.06-.06.06-.06.06-.07,0-.08.06-.09.06-.15.09h-6.15l-.13.05h-.13l-.14.05h-.14l-.15.05-.15,0-.15.05h-.15l-.16.05-.16.05-.16.06-.17.05-.17.06-.17.06-.22.07h-.59l-.13-.05-.1-.18-.06-.08-.06-.09-.07-.07-.07-.08-.08-.06-.09-.06-.09-.06-.09-.06h-3l-.13-.18,0-.08v-.65l.06-.08L142,27l.08-.06.08-.06.09-.06.09-.05.11-.05.11,0h.12l.13-.05h10.92Zm8,45c1.11-.38,2.07.43,3.12.9a2,2,0,0,1,.25.53c.14,1.13-1.58.48-2.16.36a3.53,3.53,0,0,0-.65-.11c-.51.41-1,.82-1.53,1.21a6.33,6.33,0,0,1-1.89.86l-.81.24c-.46,0-1.58,0-1.37-.78a1.88,1.88,0,0,1,.57-.65,5.42,5.42,0,0,0,2.32-.71c.67-.49,1.39-1.61,2.14-1.85ZM128.88,14.69a3.14,3.14,0,0,1,3-.84,7,7,0,0,0,1.29-.9c.52-.42.73-.18.59.7a2.91,2.91,0,0,1-.63,1.46,2.36,2.36,0,0,1-1.18.38,4.32,4.32,0,0,0-2.2-.07,2,2,0,0,0-1.36.91C128.08,15.91,128.25,15.36,128.88,14.69Zm30.1,8.4a4.81,4.81,0,0,0-2.51-.39c-1.22,0-7.33,1-8.08,0-.43.37-5.92,1.23-2.63,1.89,4.31.87,8.65-1.29,13-.49.24-.27.55-.72.24-1ZM148.41,21.9a1.64,1.64,0,0,1,.28-.31c.63-.61,11.94-1.21,12.36.48.35,1.43,3.52,1.46,4.64,1.66,2.06.35,5.74,2.93,1.28,2.91a13,13,0,0,1-4.6-1c-5.37,0-10.84,0-16.1,1.27-2.49-.22-3.8-2.65-4.69-4.71-.64.51-5-3.91-4.18-4.73.87-.46,2.27.76,2.78,1.35-.28-1-1.88-1.83-3.12-2-.61.63-.79,1.66-1.41,2.32-1.5,1.59-5.2-2.13-1-1.76.4-.85,1-6.29,2.81-5.19,2.11,1.31-.87,3.07,2.27,4.16,1.77.62,2.67,2.71,3.42,4.22C144,22.29,147.41,20.72,148.41,21.9ZM132.19,9.71A4.69,4.69,0,0,1,134.3,9a1.75,1.75,0,0,1,1.57.92,2.44,2.44,0,0,1,.32.94h0a2.87,2.87,0,0,1-.27,1.58c-.19.55-.69.89-1,.47a.89.89,0,0,1-.25-.49,2.11,2.11,0,0,0-.1-.5c-.31-.87-1.24-1.07-2-1.17h-.11c-.22-.1-.51-.24-.47-.53S132,9.81,132.19,9.71Zm-1.37.36h.05a2.06,2.06,0,0,1,1,1.37,1.67,1.67,0,0,1-.47,1.2c-.06,0-.09.07-.13.11a7.05,7.05,0,0,1-1.3.94,1.15,1.15,0,0,1-.61.28,1.45,1.45,0,0,1-1.16-.87,1.47,1.47,0,0,1-.1-.22c-.16-.48-.27-.94.18-1.3a.88.88,0,0,1,.5-.11h.59c.07,0,.66,0,.67-.1a1.42,1.42,0,0,0-.31-.61v-.29c.06-.27.23-.35.44-.46A1.78,1.78,0,0,1,130.82,10.07Zm6.15,73a.29.29,0,0,1-.07-.18,1.41,1.41,0,0,0-.28-.91.46.46,0,0,0-.52-.1,6.57,6.57,0,0,0-2.23,1.36c-1.36,1.08-2.13,1.71-2.3,1.78-.46.28-.81.38-1,.28h0c.11.07.21.17.32.24s0,.07,0,.11a1.76,1.76,0,0,0,1.54.8A6,6,0,0,0,135,86a4,4,0,0,0,2-1.33,1.23,1.23,0,0,0,0-1.59Zm4.72-12.29c.79-1.71,1.66-3.38,2.52-5a7.89,7.89,0,0,1,1.27-2,8.73,8.73,0,0,0,1.17-1.66,3.74,3.74,0,0,0,.17-.54,3.93,3.93,0,0,0-.84,0,42.28,42.28,0,0,0-5.13,9,29.77,29.77,0,0,0-1.19,4.35l.87-.78a4.62,4.62,0,0,1,1.41-.89c-.3-.23-.89-.58-.78-1a7.61,7.61,0,0,1,.53-1.37ZM126.86,12.61a3.13,3.13,0,0,0,.1.6c.58,1.63-1.31,3.66-2.27,4.8a14,14,0,0,1-3,2.86c-3.13-.42,1.63-4.35,2-5.07,1-1.67.94-3.78,1.12-5.64a.84.84,0,0,1,.24-.52c-3,0-5.77,1.43-8.76.6a.91.91,0,0,1-.59-1c.08-.62.61-.58,1.06-.75a4.07,4.07,0,0,0-.52-.58A1.08,1.08,0,0,1,117,7c1.09-.31,1.15,1,2.06,1.34,1.2.51,2.83-.05,4-.39,1.37-.39,3.54-1.24,4.37.48.91.19,3.31,1.16,1.79,2-.61.33-1.32.49-1.66,1.3-.27.13-.5.36-.77.25C126.83,12.22,126.84,12.42,126.86,12.61Zm-.19-1.67c.16-.17.82-.76,1-.93a10.34,10.34,0,0,0-1.09-.3C126.62,10,126.65,10.68,126.67,10.94Z" transform="translate(0 -0.05)"/><polyline class="cls-1" points="0.17 126.39 277.96 126.39 277.96 124.6 0.17 124.6"/><path class="cls-1" d="M252.75,135.43H246.2v2.14h6.23a2.89,2.89,0,0,1,2,.5,2.56,2.56,0,0,1,.52,1.87v1.37a2.55,2.55,0,0,1-.52,1.86,2.89,2.89,0,0,1-2,.5h-6.17a2.89,2.89,0,0,1-2-.5,2.55,2.55,0,0,1-.52-1.86V141l2.06-.43v1.18h7.06v-2.28h-6.23a2.89,2.89,0,0,1-2-.5,2.59,2.59,0,0,1-.51-1.86V136a2.59,2.59,0,0,1,.51-1.86,2.84,2.84,0,0,1,2-.5h5.67a3,3,0,0,1,1.94.48,2.23,2.23,0,0,1,.54,1.71V136l-2.05.48m-25.07,7.11v-10h10.23v1.7H230v2.23h4.62v1.7H230v2.48h8v1.88Zm-9.25-8.21v8.21h-2.32v-8.21H211.5v-1.78H223v1.78Zm-13.88,8.21v-10h2.33v10Zm-15.85-10v8.11h6.63v-8.11h2.32v7.63a2.63,2.63,0,0,1-.51,1.86,2.84,2.84,0,0,1-2,.5H188.8a2.84,2.84,0,0,1-2-.5,2.54,2.54,0,0,1-.51-1.86v-7.63Zm-11.12,1.75H171v2.14h6.23a2.89,2.89,0,0,1,2,.5,2.56,2.56,0,0,1,.52,1.87v1.37a2.55,2.55,0,0,1-.52,1.86,2.89,2.89,0,0,1-2,.5h-6.17a2.89,2.89,0,0,1-2-.5,2.55,2.55,0,0,1-.52-1.86V141l2.06-.43v1.18h7.06v-2.28h-6.23a2.89,2.89,0,0,1-2-.5,2.59,2.59,0,0,1-.51-1.86V136a2.59,2.59,0,0,1,.51-1.86,2.84,2.84,0,0,1,2-.5h5.67a3,3,0,0,1,1.94.48,2.23,2.23,0,0,1,.54,1.71V136l-2,.48Zm-40.07,8.24v-10h10.23v1.7h-7.9v2.23h4.61v1.7h-4.61v2.48h8v1.88Zm-15.85-10v8.11h6.62v-8.11h2.32v7.63a2.59,2.59,0,0,1-.51,1.86,2.84,2.84,0,0,1-2,.5h-6.31a2.84,2.84,0,0,1-2-.5,2.55,2.55,0,0,1-.52-1.86v-7.63Zm-19,8.11h3.43l-.93-2.17,1.68-.68,1.35,2.85h2.14V135.4h-7.67ZM100.33,136a2.59,2.59,0,0,1,.51-1.86,2.84,2.84,0,0,1,2-.5h7.35a2.84,2.84,0,0,1,2,.5,2.59,2.59,0,0,1,.51,1.86v5.27a2.54,2.54,0,0,1-.51,1.86,2.84,2.84,0,0,1-2,.5h-1.08l1.26,2.57H108l-1.12-2.57h-4.1a2.84,2.84,0,0,1-2-.5,2.54,2.54,0,0,1-.51-1.86Zm-9,7.63v-10h2.33v10Zm-9.24-8.21v8.21H79.74v-8.21H75.15v-1.78H86.67v1.78Zm-20.51-1.78v8.11h6.63v-8.11H70.5v7.63a2.54,2.54,0,0,1-.51,1.86,2.84,2.84,0,0,1-2,.5H61.71a2.84,2.84,0,0,1-2-.5,2.55,2.55,0,0,1-.52-1.86v-7.63Zm-19,8.11h7.66v-6.33H42.56ZM40.23,136a2.59,2.59,0,0,1,.51-1.86,2.84,2.84,0,0,1,2-.5h7.35a2.84,2.84,0,0,1,2,.5A2.59,2.59,0,0,1,52.6,136v5.27a2.54,2.54,0,0,1-.51,1.86,2.84,2.84,0,0,1-2,.5H42.71a2.84,2.84,0,0,1-2-.5,2.54,2.54,0,0,1-.51-1.86Zm-17,7.63v-10H31.8a2.54,2.54,0,0,1,1.71.46,1.88,1.88,0,0,1,.53,1.48v1.21a1.5,1.5,0,0,1-.45,1.15,2.08,2.08,0,0,1-1.28.54,2.11,2.11,0,0,1,1.33.61,1.86,1.86,0,0,1,.47,1.31v1.27a1.66,1.66,0,0,1-.72,1.48,4.08,4.08,0,0,1-2.22.48Zm7.59-4.34h-5.3v2.54h5.3a1.34,1.34,0,0,0,.89-.2A.85.85,0,0,0,32,141v-.76a.85.85,0,0,0-.24-.69,1.43,1.43,0,0,0-.9-.22Zm0-4h-5.3v2.39h5.3a1.53,1.53,0,0,0,.84-.17.61.61,0,0,0,.23-.55v-1a.64.64,0,0,0-.23-.55,1.57,1.57,0,0,0-.8-.15Z" transform="translate(0 -0.05)"/><path class="cls-1" d="M99.56,178.36c-.19.95-.42,1.92-.68,2.92l-1.13,4.54H95.9L92.68,175.7h2l1.22,4c.37,1.27.66,2.41.89,3.44h0c.23-1.1.48-2.23.78-3.39l1-4.08h1.91l1,4.08c.29,1.15.55,2.28.77,3.39h0c.28-1.21.57-2.36.89-3.44l1.22-4h2l-3.21,10.12h-1.85l-1.13-4.54c-.26-1-.49-2-.68-2.92" transform="translate(0 -0.05)"/><path class="cls-1" d="M113.81,180.35a9.77,9.77,0,0,0,1.08-.06,2.74,2.74,0,0,0,.74-.17,1.47,1.47,0,0,0,.77-.57,1.59,1.59,0,0,0,.22-.85,1.62,1.62,0,0,0-.17-.72,1.18,1.18,0,0,0-.58-.5,2.14,2.14,0,0,0-.66-.17,8.39,8.39,0,0,0-1-.06h-1.32v3.1m5.64-1.61a2.78,2.78,0,0,1-.59,1.8,3.54,3.54,0,0,1-1.81,1.09h0l3,4.16h-2.22l-2.76-3.92h-1.27v3.92H111V175.7h3.08a11.28,11.28,0,0,1,1.42.09,4.8,4.8,0,0,1,1.12.26,2.81,2.81,0,0,1,1.38,1A2.7,2.7,0,0,1,118.53,178.74Z" transform="translate(0 -0.05)"/><path class="cls-1" d="M132.77,180.76a6.35,6.35,0,0,1-.33,2.12,4.56,4.56,0,0,1-1,1.66,4.3,4.3,0,0,1-1.55,1.08,5.82,5.82,0,0,1-4.19,0,4.3,4.3,0,0,1-1.55-1.08,4.56,4.56,0,0,1-1-1.66,7,7,0,0,1,0-4.24,4.56,4.56,0,0,1,1-1.66,4.32,4.32,0,0,1,1.55-1.09,6,6,0,0,1,4.19,0,4.32,4.32,0,0,1,1.55,1.09,4.56,4.56,0,0,1,1,1.66,6.35,6.35,0,0,1,.33,2.12m-1.92,0a5.17,5.17,0,0,0-.22-1.61A3.24,3.24,0,0,0,130,178a2.47,2.47,0,0,0-1-.69,3.14,3.14,0,0,0-1.21-.23,3.33,3.33,0,0,0-1.21.23,2.57,2.57,0,0,0-1,.69,3.2,3.2,0,0,0-.63,1.16,5.14,5.14,0,0,0-.23,1.61,5.2,5.2,0,0,0,.23,1.62,3.24,3.24,0,0,0,.63,1.15,2.74,2.74,0,0,0,1,.68,3.3,3.3,0,0,0,2.42,0,2.62,2.62,0,0,0,1-.68,3.24,3.24,0,0,0,.63-1.15,5.3,5.3,0,0,0,.22-1.63Z" transform="translate(0 -0.05)"/><path class="cls-1" d="M142.25,177.07a3.74,3.74,0,0,0-1.4.26,2.88,2.88,0,0,0-1.1.72,3.24,3.24,0,0,0-.71,1.18,4.59,4.59,0,0,0-.26,1.6,4.94,4.94,0,0,0,.23,1.57,3,3,0,0,0,.68,1.13,2.75,2.75,0,0,0,1.07.68,4.08,4.08,0,0,0,1.43.23,7.72,7.72,0,0,0,1.18-.09,6.89,6.89,0,0,0,1.11-.26v1.59a7.21,7.21,0,0,1-1.14.24,9,9,0,0,1-1.27.09,6.2,6.2,0,0,1-2.26-.37,4.13,4.13,0,0,1-2.63-2.61,6.78,6.78,0,0,1,0-4.21,4.89,4.89,0,0,1,1-1.72,4.78,4.78,0,0,1,1.66-1.14,5.77,5.77,0,0,1,2.25-.42,8.25,8.25,0,0,1,1.22.09,5.82,5.82,0,0,1,1,.24v1.58a7.3,7.3,0,0,0-1.12-.27,6.74,6.74,0,0,0-1-.08" transform="translate(0 -0.05)"/><polyline class="cls-1" points="154.04 180.2 151.42 181.18 151.42 184.22 156.16 184.22 156.16 185.77 149.57 185.77 149.57 181.86 148.46 182.27 148.46 180.68 149.57 180.27 149.57 175.65 151.42 175.65 151.42 179.59 154.04 178.61"/><path class="cls-1" d="M164.28,178.13c-.35,1.06-.66,2-.94,2.66l-.35.9h2.62l-.35-.9c-.28-.72-.59-1.6-.95-2.66m1.9,5.11h-3.82l-1,2.58h-2l4-10.12h1.7l4,10.12h-2Z" transform="translate(0 -0.05)"/><path class="cls-1" d="M178.77,178.36c-.19.95-.42,1.92-.68,2.92L177,185.82h-1.85l-3.22-10.12h2l1.22,4c.37,1.27.66,2.41.89,3.44h0c.23-1.1.48-2.23.78-3.39l1-4.08h1.91l1,4.08c.29,1.15.55,2.28.77,3.39h.05c.28-1.21.57-2.36.89-3.44l1.22-4h2l-3.21,10.12H180.6l-1.13-4.54c-.26-1-.49-2-.68-2.92" transform="translate(0 -0.05)"/></g></g></svg>